<svg width="74" height="74" xmlns="http://www.w3.org/2000/svg"><g transform="translate(1 1)" stroke="#1C2C40" stroke-width="2" fill="none" fill-rule="evenodd" stroke-linecap="round" stroke-linejoin="round"><circle cx="36" cy="36" r="36"/><path d="M49.498 43.478c-.752 1.665-1.112 2.41-2.077 3.881-1.35 2.055-3.254 4.62-5.61 4.637-2.095.017-2.636-1.367-5.479-1.344-2.843.013-3.435 1.37-5.533 1.348-2.355-.022-4.158-2.332-5.51-4.383-3.776-5.754-4.175-12.496-1.84-16.084 1.65-2.544 4.264-4.038 6.717-4.038 2.499 0 4.07 1.373 6.136 1.373 2.005 0 3.225-1.377 6.115-1.377 2.186 0 4.497 1.191 6.148 3.246-5.402 2.96-4.524 10.676.933 12.741zm-9.274-18.283c1.05-1.35 1.848-3.253 1.56-5.195-1.716.117-3.722 1.213-4.894 2.63-1.061 1.293-1.941 3.211-1.598 5.067 1.87.06 3.808-1.055 4.932-2.502z" fill="#E5E9F2"/></g></svg>