<svg width="62" height="82" xmlns="http://www.w3.org/2000/svg"><g stroke="#1C2C40" stroke-width="2" fill="none" fill-rule="evenodd" stroke-linecap="round" stroke-linejoin="round"><path d="M40.008 80.628H17.186a9.422 9.422 0 0 1-9.426-9.426V28.039h41.922v43.163c0 5.209-4.465 9.426-9.674 9.426z" fill="#FFF4D4"/><path d="M49.682 39.202h5.21c3.224 0 5.705 2.48 5.705 5.705v11.659c0 3.225-2.48 5.705-5.706 5.705h-5.209M18.426 38.953v30.264m20.59-30.264v30.264M28.597 38.953v30.264m20.341-55.07h-1.736c-.249-4.465-3.97-8.186-8.683-8.186-1.488 0-2.976.496-4.217.992-2.48-3.472-6.45-5.705-10.914-5.705-7.194 0-13.148 5.705-13.396 12.9H8.256c-3.721 0-6.946 2.976-6.946 6.945 0 3.969 2.977 6.946 6.946 6.946H48.69c3.72 0 6.946-2.977 6.946-6.946s-2.977-6.946-6.698-6.946z"/></g></svg>