<svg width="86" height="60" xmlns="http://www.w3.org/2000/svg"><g stroke-width="2" fill="none" fill-rule="evenodd" stroke-linecap="round"><path d="M84.592 52.93c0 .996-.923 1.724-1.898 1.526a86.786 86.786 0 0 0-13.528-1.665c-22.922-.993-33.597 7.737-54.422 5.221a67.726 67.726 0 0 1-12.685-2.797A1.543 1.543 0 0 1 1 53.73V4.65c0-1.008.935-1.75 1.92-1.527a89.913 89.913 0 0 0 11.389 1.822C34.917 6.89 45.142.525 67.642 1.028c3.34.075 8.787.344 15.614 1.42.761.12 1.336.783 1.336 1.555V52.93z" stroke="#252E43" fill="#23D3D3"/><path d="M52.898 29.449c0 5.771-4.678 10.449-10.449 10.449S32 35.22 32 29.449C32 23.679 36.678 19 42.449 19s10.449 4.68 10.449 10.449z" stroke="#1C2C40" fill="#FFF"/><path d="M70 8c2.57.212 5.543.543 8.836 1.064M8 11c2.98.67 5.99 1.189 9.023 1.552M70 46c2.57.212 5.543.543 8.836 1.064M8 50c2.98.67 5.99 1.189 9.023 1.552" stroke="#1C2C40"/></g></svg>