<svg width="65" height="86" xmlns="http://www.w3.org/2000/svg"><g stroke-width="2" fill="none" fill-rule="evenodd" stroke-linecap="round" stroke-linejoin="round"><path d="M63.475 14.125h-54.6C4.675 14.125 1 11.238 1 7.562 1 3.888 4.675 1 8.875 1h54.6" stroke="#1C2C40"/><path d="M63.475 84.388H11.5c-5.775 0-10.5-4.726-10.5-10.5V8m63 5.833v70.35" stroke="#1C2C40"/><path d="M47.696 58.254l-11.55-5.512c2.887-1.313 4.725-4.2 4.987-7.613l.263-6.825c0-4.462-3.675-8.137-8.4-8.137h-1.838c-4.725 0-8.4 3.675-8.4 8.137l.263 6.825c0 3.413 2.1 6.038 4.987 7.613l-11.55 5.512c-1.575.788-2.625 2.363-2.625 3.938v3.412h36.225v-3.412c0-1.838-.787-3.413-2.362-3.938z" stroke="#252E43" fill="#23D3D3"/></g></svg>