<?xml version="1.0" encoding="UTF-8"?>
<svg width="46px" height="57px" viewBox="0 0 46 57" version="1.1" xmlns="http://www.w3.org/2000/svg" xmlns:xlink="http://www.w3.org/1999/xlink">
    <!-- Generator: Sketch 54.1 (76490) - https://sketchapp.com -->
    <title>check-in</title>
    <desc>Created with Sketch.</desc>
    <g id="Icons" stroke="none" stroke-width="1" fill="none" fill-rule="evenodd">
        <g id="Artboard" transform="translate(-521.000000, -177.000000)" fill-rule="nonzero" stroke="#1C2C40">
            <g id="check-in" transform="translate(522.000000, 178.000000)">
                <path d="M41.6500286,0 L3.03747138,0 C1.55201328,0 0.34375,1.22119096 0.34375,2.72254254 L0.34375,10.7995047 C0.34375,12.3008563 1.55201328,13.5220472 3.03747138,13.5220472 L41.6500286,13.5220472 C43.1354867,13.5220472 44.34375,12.3008563 44.34375,10.7995047 L44.34375,2.72297223 C44.34375,1.22162065 43.1354867,0 41.6500286,0 Z" id="Path" fill="#FFFFFF"></path>
                <path d="M11.2920948,6.76080876 C11.2920948,7.01175018 11.0914262,7.21456585 10.8431413,7.21456585 L9.20165481,7.21456585 L10.3627269,8.38806075 C10.538312,8.56552446 10.538312,8.8525602 10.3627269,9.02959421 C10.1871419,9.20705792 9.90314475,9.20705792 9.72798483,9.02959421 L8.5669127,7.85609931 L8.5669127,9.51600806 C8.5669127,9.76694948 8.36624406,9.96976515 8.11795913,9.96976515 C7.86967421,9.96976515 7.66900557,9.76694948 7.66900557,9.51600806 L7.66900557,7.85609931 L6.50793343,9.02959421 C6.33234837,9.20705792 6.04835123,9.20705792 5.87319132,9.02959421 C5.69760626,8.8521305 5.69760626,8.56509477 5.87319132,8.38806075 L7.03426346,7.21456585 L5.39192671,7.21456585 C5.14364178,7.21456585 4.94297314,7.01175018 4.94297314,6.76080876 C4.94297314,6.50986734 5.14364178,6.30705167 5.39192671,6.30705167 L7.03426346,6.30705167 L5.87319132,5.13355677 C5.69760626,4.95609306 5.69760626,4.66905733 5.87319132,4.49202331 C6.04877638,4.3145596 6.33277352,4.3145596 6.50793343,4.49202331 L7.66900557,5.66551821 L7.66900557,4.00646885 C7.66900557,3.75552743 7.86967421,3.55271176 8.11795913,3.55271176 C8.36624406,3.55271176 8.5669127,3.75552743 8.5669127,4.00646885 L8.5669127,5.66551821 L9.72798483,4.49202331 C9.90356989,4.3145596 10.187567,4.3145596 10.3627269,4.49202331 C10.538312,4.66948702 10.538312,4.95652276 10.3627269,5.13355677 L9.20165481,6.30705167 L10.8431413,6.30705167 C11.091001,6.30705167 11.2920948,6.51029704 11.2920948,6.76080876 Z" id="Path" fill="#FFFFFF"></path>
                <path d="M19.5237604,6.76080876 C19.5237604,7.01175018 19.3230918,7.21456585 19.0748069,7.21456585 L17.4333204,7.21456585 L18.5943925,8.38806075 C18.7699776,8.56552446 18.7699776,8.8525602 18.5943925,9.02959421 C18.4188075,9.20705792 18.1348104,9.20705792 17.9596504,9.02959421 L16.7985783,7.85609931 L16.7985783,9.51600806 C16.7985783,9.76694948 16.5979097,9.96976515 16.3496247,9.96976515 C16.1013398,9.96976515 15.9006712,9.76694948 15.9006712,9.51600806 L15.9006712,7.85609931 L14.739599,9.02959421 C14.564014,9.20705792 14.2800168,9.20705792 14.1048569,9.02959421 C13.9292719,8.8521305 13.9292719,8.56509477 14.1048569,8.38806075 L15.2659291,7.21456585 L13.6244426,7.21456585 C13.3761577,7.21456585 13.175489,7.01175018 13.175489,6.76080876 C13.175489,6.50986734 13.3761577,6.30705167 13.6244426,6.30705167 L15.2659291,6.30705167 L14.1048569,5.13355677 C13.9292719,4.95609306 13.9292719,4.66905733 14.1048569,4.49202331 C14.280442,4.3145596 14.5644391,4.3145596 14.739599,4.49202331 L15.9006712,5.66551821 L15.9006712,4.00646885 C15.9006712,3.75552743 16.1013398,3.55271176 16.3496247,3.55271176 C16.5979097,3.55271176 16.7985783,3.75552743 16.7985783,4.00646885 L16.7985783,5.66551821 L17.9596504,4.49202331 C18.1352355,4.3145596 18.4192326,4.3145596 18.5943925,4.49202331 C18.7699776,4.66948702 18.7699776,4.95652276 18.5943925,5.13355677 L17.4333204,6.30705167 L19.0748069,6.30705167 C19.3226667,6.30705167 19.5237604,6.51029704 19.5237604,6.76080876 Z" id="Path" fill="#FFFFFF"></path>
                <path d="M27.7562763,6.76080876 C27.7562763,7.01175018 27.5556077,7.21456585 27.3073228,7.21456585 L25.664986,7.21456585 L26.8260582,8.38806075 C27.0016432,8.56552446 27.0016432,8.8525602 26.8260582,9.02959421 C26.6504731,9.20705792 26.366476,9.20705792 26.191316,9.02959421 L25.0302439,7.85609931 L25.0302439,9.51600806 C25.0302439,9.76694948 24.8295753,9.96976515 24.5812903,9.96976515 C24.3330054,9.96976515 24.1323368,9.76694948 24.1323368,9.51600806 L24.1323368,7.85609931 L22.9712646,9.02959421 C22.7956796,9.20705792 22.5116824,9.20705792 22.3365225,9.02959421 C22.1609375,8.8521305 22.1609375,8.56509477 22.3365225,8.38806075 L23.4975947,7.21456585 L21.8561082,7.21456585 C21.6078233,7.21456585 21.4071546,7.01175018 21.4071546,6.76080876 C21.4071546,6.50986734 21.6078233,6.30705167 21.8561082,6.30705167 L23.4975947,6.30705167 L22.3365225,5.13355677 C22.1609375,4.95609306 22.1609375,4.66905733 22.3365225,4.49202331 C22.5121076,4.3145596 22.7961047,4.3145596 22.9712646,4.49202331 L24.1323368,5.66551821 L24.1323368,4.00646885 C24.1323368,3.75552743 24.3330054,3.55271176 24.5812903,3.55271176 C24.8295753,3.55271176 25.0302439,3.75552743 25.0302439,4.00646885 L25.0302439,5.66551821 L26.191316,4.49202331 C26.3669011,4.3145596 26.6508982,4.3145596 26.8260582,4.49202331 C27.0016432,4.66948702 27.0016432,4.95652276 26.8260582,5.13355677 L25.664986,6.30705167 L27.3073228,6.30705167 C27.5551825,6.30705167 27.7562763,6.51029704 27.7562763,6.76080876 Z" id="Path" fill="#FFFFFF"></path>
                <path d="M37.3573353,6.72213628 C37.3573353,7.22358943 36.9555729,7.62965046 36.4594282,7.62965046 L32.5765751,7.62965046 C32.0804304,7.62965046 31.678668,7.22358943 31.678668,6.72213628 C31.678668,6.22068314 32.0804304,5.8146221 32.5765751,5.8146221 L36.4594282,5.8146221 C36.9559981,5.81419241 37.3573353,6.22025344 37.3573353,6.72213628 Z" id="Path" fill="#FFFFFF"></path>
                <path d="M9.4346345,16.8577634 L3.42435371,16.8577634 C1.93889561,16.8577634 0.730632331,18.0789544 0.730632331,19.5803059 L0.730632331,25.6540337 C0.730632331,27.1553852 1.93889561,28.3765762 3.42435371,28.3765762 L9.4346345,28.3765762 C10.9200926,28.3765762 12.1283559,27.1553852 12.1283559,25.6540337 L12.1283559,19.5803059 C12.1283559,18.0789544 10.9200926,16.8577634 9.4346345,16.8577634 Z" id="Path" fill="#FFF4D4"></path>
                <path d="M25.0753093,16.8577634 L19.0650285,16.8577634 C17.5795704,16.8577634 16.3713072,18.0789544 16.3713072,19.5803059 L16.3713072,25.6540337 C16.3713072,27.1553852 17.5795704,28.3765762 19.0650285,28.3765762 L25.0753093,28.3765762 C26.5607674,28.3765762 27.7690307,27.1553852 27.7690307,25.6540337 L27.7690307,19.5803059 C27.7694558,18.0789544 26.5607674,16.8577634 25.0753093,16.8577634 Z" id="Path" fill="#FFFFFF"></path>
                <path d="M40.7151338,16.8577634 L34.7057033,16.8577634 C33.2202453,16.8577634 32.011982,18.0789544 32.011982,19.5803059 L32.011982,25.6540337 C32.011982,27.1553852 33.2202453,28.3765762 34.7057033,28.3765762 L40.7151338,28.3765762 C42.2005919,28.3765762 43.4088552,27.1553852 43.4088552,25.6540337 L43.4088552,19.5803059 C43.4092804,18.0789544 42.2005919,16.8577634 40.7151338,16.8577634 Z" id="Path" fill="#FFFFFF"></path>
                <path d="M9.4346345,30.1692605 L3.42435371,30.1692605 C1.93889561,30.1692605 0.730632331,31.3904514 0.730632331,32.891803 L0.730632331,38.9663901 C0.730632331,40.4677417 1.93889561,41.6889326 3.42435371,41.6889326 L9.4346345,41.6889326 C10.9200926,41.6889326 12.1283559,40.4677417 12.1283559,38.9663901 L12.1283559,32.891803 C12.1283559,31.3904514 10.9200926,30.1692605 9.4346345,30.1692605 Z" id="Path" fill="#FFFFFF"></path>
                <path d="M25.0753093,30.1692605 L19.0650285,30.1692605 C17.5795704,30.1692605 16.3713072,31.3904514 16.3713072,32.891803 L16.3713072,38.9663901 C16.3713072,40.4677417 17.5795704,41.6889326 19.0650285,41.6889326 L25.0753093,41.6889326 C26.5607674,41.6889326 27.7690307,40.4677417 27.7690307,38.9663901 L27.7690307,32.891803 C27.7694558,31.3904514 26.5607674,30.1692605 25.0753093,30.1692605 Z" id="Path" fill="#FFFFFF"></path>
                <path d="M40.7151338,30.1692605 L34.7057033,30.1692605 C33.2202453,30.1692605 32.011982,31.3904514 32.011982,32.891803 L32.011982,38.9663901 C32.011982,40.4677417 33.2202453,41.6889326 34.7057033,41.6889326 L40.7151338,41.6889326 C42.2005919,41.6889326 43.4088552,40.4677417 43.4088552,38.9663901 L43.4088552,32.891803 C43.4092804,31.3904514 42.2005919,30.1692605 40.7151338,30.1692605 Z" id="Path" fill="#FFF4D4"></path>
                <path d="M9.4346345,43.4811872 L3.42435371,43.4811872 C1.93889561,43.4811872 0.730632331,44.7023782 0.730632331,46.2037297 L0.730632331,52.2774575 C0.730632331,53.778809 1.93889561,55 3.42435371,55 L9.4346345,55 C10.9200926,55 12.1283559,53.778809 12.1283559,52.2774575 L12.1283559,46.2037297 C12.1283559,44.7028079 10.9200926,43.4811872 9.4346345,43.4811872 Z" id="Path" fill="#FFFFFF"></path>
                <path d="M25.0753093,43.4811872 L19.0650285,43.4811872 C17.5795704,43.4811872 16.3713072,44.7023782 16.3713072,46.2037297 L16.3713072,52.2774575 C16.3713072,53.778809 17.5795704,55 19.0650285,55 L25.0753093,55 C26.5607674,55 27.7690307,53.778809 27.7690307,52.2774575 L27.7690307,46.2037297 C27.7694558,44.7028079 26.5607674,43.4811872 25.0753093,43.4811872 Z" id="Path" fill="#FFF4D4"></path>
                <path d="M40.7151338,43.4811872 L34.7057033,43.4811872 C33.2202453,43.4811872 32.011982,44.7023782 32.011982,46.2037297 L32.011982,52.2774575 C32.011982,53.778809 33.2202453,55 34.7057033,55 L40.7151338,55 C42.2005919,55 43.4088552,53.778809 43.4088552,52.2774575 L43.4088552,46.2037297 C43.4092804,44.7028079 42.2005919,43.4811872 40.7151338,43.4811872 Z" id="Path" fill="#FFFFFF"></path>
            </g>
        </g>
    </g>
</svg>