<?xml version="1.0" encoding="UTF-8"?>
<svg width="79px" height="63px" viewBox="0 0 79 63" version="1.1" xmlns="http://www.w3.org/2000/svg" xmlns:xlink="http://www.w3.org/1999/xlink">
    <!-- Generator: Sketch 54.1 (76490) - https://sketchapp.com -->
    <title>conceirge</title>
    <desc>Created with Sketch.</desc>
    <g id="Icons" stroke="none" stroke-width="1" fill="none" fill-rule="evenodd" stroke-linecap="round" stroke-linejoin="round">
        <g id="Artboard" transform="translate(-164.000000, -43.000000)" stroke="#1C2C40" stroke-width="2">
            <g id="conceirge" transform="translate(165.000000, 44.000000)">
                <path d="M6.50266568,53.5 C6.50266568,36.4327535 20.4354192,22.5 37.5026657,22.5 C54.5699122,22.5 68.5026657,36.4327535 68.5026657,53.5" id="Path" fill="#E5E9F2" fill-rule="nonzero"></path>
                <path d="M38.1373751,16.0624877 L38.1373751,21.2761741 M6.1537051,54.8489606 L70.8516263,54.8489606 C73.9726091,54.8489606 76.5026657,57.3790171 76.5026657,60.5 L76.5026657,60.5 L0.502665677,60.5 L0.502665677,60.5 C0.502665677,57.3790171 3.03272221,54.8489606 6.1537051,54.8489606 Z M37.7610681,0.5 L37.7610681,8.05497242 M25.9678759,3.80519922 L31.2896601,9.14737145 M49.6682242,3.54636614 L44.34644,8.88853837 M31.3638496,14.9103544 L44.1582866,14.9103544" id="Shape"></path>
            </g>
        </g>
    </g>
</svg>