<svg width="74" height="75" xmlns="http://www.w3.org/2000/svg"><g transform="translate(1 1)" stroke="#1C2C40" stroke-width="2" fill="none" fill-rule="evenodd" stroke-linecap="round" stroke-linejoin="round"><circle cx="35.897" cy="36.327" r="35.879"/><path d="M47.333 55.836H24.91c-3.812 0-6.951-3.139-6.951-6.951s3.139-6.952 6.951-6.952h22.424c3.812 0 6.952 3.14 6.952 6.952s-3.14 6.951-6.952 6.951z" fill="#FFDFF9"/><path d="M44.642 42.158V54.49m-8.521-12.332V54.49M27.6 42.158V54.49m15.248-26.46c.673-2.69 3.14-4.485 5.83-4.485 2.916 0 5.158 1.794 5.831 4.485m-37.224 0c.673-2.69 3.14-4.485 5.83-4.485 2.691 0 5.158 1.794 5.83 4.485"/></g></svg>