<?xml version="1.0" encoding="UTF-8"?>
<svg width="76px" height="75px" viewBox="0 0 76 75" version="1.1" xmlns="http://www.w3.org/2000/svg" xmlns:xlink="http://www.w3.org/1999/xlink">
    <!-- Generator: Sketch 54.1 (76490) - https://sketchapp.com -->
    <title>key-solid</title>
    <desc>Created with Sketch.</desc>
    <g id="Icons" stroke="none" stroke-width="1" fill="none" fill-rule="evenodd">
        <g id="Artboard" transform="translate(-507.000000, -39.000000)" fill="#FFF4D4" fill-rule="nonzero" stroke="#1C2C40" stroke-width="2">
            <g id="key-solid" transform="translate(508.000000, 40.000000)">
                <path d="M73.9294118,25.0938926 C73.9294118,38.9527715 62.6945407,50.1875 48.8356618,50.1875 C47.2359352,50.1875 45.6718532,50.036082 44.1552497,49.7499277 L40.7316637,53.6015332 C40.0823016,54.3320712 39.1515209,54.7500352 38.1740973,54.75 L32.8669118,54.75 L32.8669118,60.453125 C32.8669118,62.342998 31.3349098,63.875 29.4450368,63.875 L23.7419118,63.875 L23.7419118,69.578125 C23.7419118,71.467998 22.2099098,73 20.3200368,73 L4.35128676,73 C2.46141372,73 0.929411765,71.467998 0.929411765,69.578125 L0.929411765,58.4486191 C0.929411765,57.5411094 1.28999184,56.6706699 1.93159341,56.0289258 L25.0010192,32.9595 C24.1850446,30.4851992 23.7419118,27.841373 23.7419118,25.09375 C23.7419118,11.2348711 34.9766403,0.000142578125 48.8355192,0 C62.735318,-0.000142578125 73.9294118,11.1939512 73.9294118,25.0938926 Z M48.8356618,18.25 C48.8356618,22.0297461 51.8996657,25.09375 55.6794118,25.09375 C59.4591579,25.09375 62.5231618,22.0297461 62.5231618,18.25 C62.5231618,14.4702539 59.4591579,11.40625 55.6794118,11.40625 C51.8996657,11.40625 48.8356618,14.4702539 48.8356618,18.25 Z" id="Shape"></path>
            </g>
        </g>
    </g>
</svg>