<svg width="49" height="67" xmlns="http://www.w3.org/2000/svg"><g stroke-width="2" fill="none" fill-rule="evenodd" stroke-linecap="round" stroke-linejoin="round"><path d="M47.8 44.6H1V31c0-1.8 1.4-3.2 3.2-3.2h40.6c1.8 0 3.2 1.4 3.2 3.2v13.6h-.2z" stroke="#FFF"/><path d="M44.987 61H4.214C2.406 61 1 59.6 1 57.8V44.2h47v13.6c0 1.8-1.406 3.2-3.013 3.2zM9.6 61l-2 5 2-5zm29.8 0l2 5-2-5zM22.2 34.2h4.6-4.6zm0 16.4h4.6-4.6zM12.6 23H26v4H12.6v-4z" stroke="#FFF"/><path stroke="#1C2C40" fill="#EBF9FF" d="M28.2 11.8H10.6L14 1h10.6z"/><path d="M19.4 11.8V23m5-11.2v3.4" stroke="#FFF"/></g></svg>