<?xml version="1.0" encoding="UTF-8"?>
<svg width="53px" height="68px" viewBox="0 0 53 68" version="1.1" xmlns="http://www.w3.org/2000/svg" xmlns:xlink="http://www.w3.org/1999/xlink">
    <!-- Generator: Sketch 54.1 (76490) - https://sketchapp.com -->
    <title>listing</title>
    <desc>Created with Sketch.</desc>
    <g id="Icons" stroke="none" stroke-width="1" fill="none" fill-rule="evenodd" stroke-linecap="round">
        <g id="Artboard" transform="translate(-68.000000, -163.000000)" stroke="#1C2C40" stroke-width="2">
            <g id="listing" transform="translate(69.000000, 164.000000)">
                <polygon id="Path" fill="#D6FFE8" fill-rule="nonzero" stroke-linejoin="round" transform="translate(18.000000, 18.885942) rotate(-90.000000) translate(-18.000000, -18.885942) " points="9 28.8859425 9 18.8925903 9.00045432 8.89770116 27 8.88594247 27 18.598623 27 28.8757207"></polygon>
                <polygon id="Path" fill="#D6FFE8" fill-rule="nonzero" stroke-linejoin="round" transform="translate(38.000000, 14.500000) rotate(-90.000000) translate(-38.000000, -14.500000) " points="33.5 19.5 33.5 14.5033239 33.5002272 9.50587935 42.5 9.5 42.5 14.3563403 42.5 19.4948891"></polygon>
                <polygon id="Path" fill="#D6FFE8" fill-rule="nonzero" stroke-linejoin="round" transform="translate(38.000000, 25.000000) rotate(-90.000000) translate(-38.000000, -25.000000) " points="35 30 35 25.0033239 35.0001514 20.0058793 41 20 41 24.8563403 41 29.9948891"></polygon>
                <path d="M40.959599,0.673 L8.52,0.673 C4.101722,0.673 0.52,4.254722 0.52,8.673 L0.52,60.673 C0.52,63.4344237 2.75857625,65.673 5.52,65.673 L45.3815186,65.673 C48.1429423,65.673 50.3815186,63.4344237 50.3815186,60.673 C50.3815186,60.6274722 50.3808968,60.5819464 50.3796533,60.5364356 L48.9566144,8.45449693 C48.8382629,4.12293746 45.292775,0.673 40.959599,0.673 Z" id="Path" stroke-linejoin="round"></path>
                <path d="M8,38.4583333 L42.5,38.4583333" id="Line"></path>
                <path d="M8,45.4583333 L42.5,45.4583333" id="Line"></path>
                <path d="M8,52.4583333 L42.5,52.4583333" id="Line"></path>
            </g>
        </g>
    </g>
</svg>