<?xml version="1.0" encoding="UTF-8"?>
<svg width="74px" height="74px" viewBox="0 0 74 74" version="1.1" xmlns="http://www.w3.org/2000/svg" xmlns:xlink="http://www.w3.org/1999/xlink">
    <!-- Generator: Sketch 54.1 (76490) - https://sketchapp.com -->
    <title>maintenance</title>
    <desc>Created with Sketch.</desc>
    <g id="Icons" stroke="none" stroke-width="1" fill="none" fill-rule="evenodd">
        <g id="Artboard" transform="translate(-276.000000, -38.000000)" stroke="#1C2C40" stroke-width="2">
            <g id="maintenance" transform="translate(277.000000, 39.000000)">
                <circle id="Oval" stroke-linecap="round" stroke-linejoin="round" cx="36" cy="36" r="36"></circle>
                <g id="wrench-solid" transform="translate(19.000000, 19.000000)" fill="#E5E9F2" fill-rule="nonzero">
                    <path d="M33.71652,7.24480916 C33.5677704,6.64516191 32.8173818,6.44195919 32.3804299,6.87891145 L27.4424745,11.8168704 L22.9348305,11.0658172 L22.1837778,6.5581699 L27.1217332,1.62021099 C27.5613414,1.18060249 27.349506,0.43154148 26.7458748,0.281463654 C23.5995552,-0.498144168 20.1351506,0.341893221 17.6761338,2.8002477 C15.0437972,5.4325862 14.3193069,9.24828173 15.4150071,12.5752282 L1.24461577,26.7456297 C-0.414871923,28.4051186 -0.414871923,31.0958945 1.24461577,32.7553833 C2.90410346,34.4148722 5.59487743,34.4148722 7.25436512,32.7553833 L21.4128033,18.596935 C24.7410756,19.7065812 28.5494637,18.9741217 31.1990659,16.3245176 C33.6607389,13.8628428 34.4994476,10.3931232 33.71652,7.24480916 Z M4.25015451,31.3435893 C3.37027408,31.3435893 2.65640882,30.6297235 2.65640882,29.7498425 C2.65640882,28.8692973 3.37027408,28.1560956 4.25015451,28.1560956 C5.13003494,28.1560956 5.84390019,28.8692973 5.84390019,29.7498425 C5.84390019,30.6297235 5.13003494,31.3435893 4.25015451,31.3435893 Z" id="Shape"></path>
                </g>
            </g>
        </g>
    </g>
</svg>