<svg width="75" height="75" xmlns="http://www.w3.org/2000/svg"><g stroke="#1C2C40" stroke-width="2" fill="none" fill-rule="evenodd" stroke-linecap="round" stroke-linejoin="round"><path d="M38.57 51.127C27.358 64.582 14.8 72.43 1.794 61.442c-2.242-2.018 4.709-14.351 15.921-27.806 11.212-13.454 21.752-22.872 24.443-20.63 13.006 10.764 7.624 24.667-3.588 38.121z"/><path d="M8.97 65.703a27.864 27.864 0 0 0 4.036 6.952c2.018 2.242 14.352-4.71 27.806-15.922 13.455-11.212 22.873-21.751 20.63-24.442-3.587-4.26-7.4-6.503-11.66-7.176M2.018 61.667c2.467 5.157 8.297 9.642 11.212 11.212"/><path d="M41.26 12.11c.898-1.57.45-4.037 1.795-5.383 1.345-1.345 3.812-.897 5.381-1.794 1.57-.897 2.691-2.915 4.485-3.363 1.794-.225 3.588 1.345 5.382 1.794 1.794.224 4.036-.897 5.606 0 1.57.897 2.018 3.139 3.364 4.484 1.345 1.346 3.812 1.794 4.485 3.364.897 1.57-.225 3.812 0 5.606.224 1.794 2.018 3.588 1.794 5.382-.225 1.794-2.467 2.915-3.364 4.485-.897 1.57-.449 4.036-1.794 5.382-1.346 1.345-3.812.897-5.382 1.794" fill="#D6FFE8"/><path d="M44.4 14.8l3.14-4.036c1.793-2.243 5.157-2.691 7.4-.897 2.242 1.794 2.69 5.157.896 7.4l-6.054 7.848" fill="#FFDED3"/><path d="M55.836 17.715c2.243 0 4.71.673 6.503 2.467a8.527 8.527 0 0 1 0 12.109c-.224.224-.224.224-.448.224M39.69 30.721l-1.569 1.57m-11.436 2.915l-.449 2.018m-1.569 12.782l-1.57.449m-8.521 3.139l-.224 2.467m37.224-16.146l-1.794.673"/></g></svg>