<?xml version="1.0" encoding="UTF-8"?>
<svg width="87px" height="66px" viewBox="0 0 87 66" version="1.1" xmlns="http://www.w3.org/2000/svg" xmlns:xlink="http://www.w3.org/1999/xlink">
    <!-- Generator: Sketch 54.1 (76490) - https://sketchapp.com -->
    <title>megaphone</title>
    <desc>Created with Sketch.</desc>
    <g id="Icons" stroke="none" stroke-width="1" fill="none" fill-rule="evenodd">
        <g id="Artboard" transform="translate(-168.000000, -168.000000)" stroke="#1C2C40" stroke-width="2">
            <g id="megaphone" transform="translate(168.555556, 169.000000)">
                <path d="M65,55.9999905 C65,57.1524991 64.115,59.9999988 61,59.9999905 C60.0914791,60.0007087 59.2097819,59.6921147 58.5,59.1249989 L47.875,50.6249997 C43.5821162,47.202373 38.4412718,44.6648553 33,43.9328793 L33,15.9999905 C38.4412049,15.2677809 43.5819869,12.803664 47.875,9.38125386 L58.5,0.875004715 C59.2094384,0.307268552 60.0913607,-0.00140421414 61,4.80254462e-06 C64.125,4.80254462e-06 65,2.90750451 65,4.0000044 L65,55.9999905 Z" id="Path" fill="#FFFFFF" fill-rule="nonzero"></path>
                <path d="M65.4444444,23 L65.4444444,36.78 C67.9179455,35.3678795 69.4446965,32.7382165 69.4446965,29.89 C69.4446965,27.0417835 67.9179455,24.4121205 65.4444444,23 Z M0.444444444,24 L0.444444444,36 C0.444444444,40.418278 4.02615317,44 8.44441479,44 L12.6568992,44 C12.4780746,45.3258771 12.3870434,46.6621205 12.3844002,48 C12.3834359,52.8050409 13.476021,57.5472879 15.5793883,61.8675 C16.2281359,63.20375 17.6443807,64 19.1293752,64 L28.4143407,64 C31.6705787,64 33.6255714,60.27 31.6518287,57.68 C29.5282505,54.9001386 28.3794773,51.4981758 28.3830909,48 C28.3872402,46.6480218 28.5726412,45.3027033 28.9343388,44 L32.4443258,44 L32.4443258,16 L8.44441479,16 C4.02615317,16 0.444444444,19.581722 0.444444444,24 Z" id="Shape" fill="#E8E0FF" fill-rule="nonzero"></path>
                <g id="Group-2" transform="translate(80.000000, 29.500000) rotate(90.000000) translate(-80.000000, -29.500000) translate(67.500000, 24.500000)" stroke-linecap="round" stroke-linejoin="round">
                    <path d="M12.4762172,0 L12.4762172,7.55497242" id="Path"></path>
                    <path d="M1,3.02313437 L5.68783411,8.9294363" id="Path" transform="translate(3.343917, 5.976285) rotate(-6.451414) translate(-3.343917, -5.976285) "></path>
                    <path d="M24.4057374,3.06883297 L19.039225,8.36607155" id="Path" transform="translate(21.722481, 5.717452) scale(-1, 1) rotate(-90.262657) translate(-21.722481, -5.717452) "></path>
                </g>
            </g>
        </g>
    </g>
</svg>