<svg width="51" height="75" xmlns="http://www.w3.org/2000/svg"><g stroke="#1C2C40" stroke-width="2" fill="none" fill-rule="evenodd" stroke-linecap="round" stroke-linejoin="round"><path d="M38.897 49.66h-26.91a6.508 6.508 0 0 1-6.502-6.502 6.508 6.508 0 0 1 6.503-6.503h26.909a6.508 6.508 0 0 1 6.503 6.503c-.224 3.587-3.14 6.503-6.503 6.503z" fill="#E8E0FF"/><path d="M33.74 1.673H16.92c-4.036 0-7.4 3.363-7.4 7.4v27.806h31.62V9.073c0-4.26-3.363-7.4-7.4-7.4z"/><path d="M46.97 32.842h-2.915c-1.57 0-2.916-1.345-2.916-2.915v-1.794c0-1.57 1.346-2.915 2.916-2.915h2.915c1.57 0 2.915 1.346 2.915 2.915v1.794c-.224 1.57-1.346 2.915-2.915 2.915zm-39.915 0H4.139c-1.57 0-2.915-1.345-2.915-2.915v-1.794c0-1.57 1.346-2.915 2.915-2.915h2.916c1.57 0 2.915 1.346 2.915 2.915v1.794c-.225 1.57-1.346 2.915-2.915 2.915zm12.333 16.819h11.885v3.588H19.388zm6.054 3.587v15.025m9.643 0H12.66v5.157h3.14v-2.242h19.285v2.242H38v-5.157zm-9.643-9.418h9.194"/></g></svg>