<?xml version="1.0" encoding="UTF-8"?>
<svg width="73px" height="51px" viewBox="0 0 73 51" version="1.1" xmlns="http://www.w3.org/2000/svg" xmlns:xlink="http://www.w3.org/1999/xlink">
    <!-- Generator: Sketch 54.1 (76490) - https://sketchapp.com -->
    <title>pricing</title>
    <desc>Created with Sketch.</desc>
    <g id="Icons" stroke="none" stroke-width="1" fill="none" fill-rule="evenodd">
        <g id="Artboard" transform="translate(-400.000000, -183.000000)">
            <g id="pricing" transform="translate(401.000000, 184.000000)">
                <path d="M71.4827586,44.2769978 C71.4827586,45.1262089 70.6987972,45.7469173 69.870669,45.5780983 C66.0836087,44.8032414 62.2417056,44.3285729 58.3804963,44.1584834 C38.9114143,43.3118302 29.8444721,50.7552163 12.1565029,48.6100205 C8.4972947,48.1634595 4.88931723,47.3648598 1.38234249,46.225238 C0.839521258,46.0452831 0.475520289,45.5328981 0.482867843,44.959095 L0.482867843,3.11242988 C0.482867843,2.25298737 1.27702156,1.62034219 2.1136434,1.81047679 C5.30166284,2.53558925 8.53277118,3.05448204 11.7870303,3.36395324 C29.2906879,5.02230213 37.9754171,-0.404633968 57.0860682,0.0242346658 C59.9229381,0.0881812813 64.5494144,0.317536475 70.3480106,1.23495725 C70.9943753,1.33727184 71.4827586,1.90255992 71.4827586,2.56078375 L71.4827586,44.2769978 Z" id="Path" stroke="#252E43" fill="#D6FFE8" fill-rule="nonzero"></path>
                <path d="M45.4827586,24 C45.4827586,28.9707149 41.4534735,33 36.4827586,33 C31.5120437,33 27.4827586,28.9707149 27.4827586,24 C27.4827586,19.0301464 31.5120437,15 36.4827586,15 C41.4534735,15 45.4827586,19.0310078 45.4827586,24 L45.4827586,24 Z" id="Path" stroke="#1C2C40" fill="#FFFFFF" fill-rule="nonzero"></path>
                <path d="M58.9984286,6 C61.1752878,6.18010654 63.6934989,6.46131062 66.4827586,6.90393093 M6.48275862,8.54867744 C9.00689889,9.11788207 11.55645,9.55880327 14.1254827,9.86719324 M58.9984286,38.2832476 C61.1752878,38.4633542 63.6934989,38.7445582 66.4827586,39.1871785 M6.48275862,41.6814842 C9.00689889,42.2506888 11.55645,42.69161 14.1254827,43" id="Shape" stroke="#1C2C40"></path>
            </g>
        </g>
    </g>
</svg>