<svg width="41" height="40" xmlns="http://www.w3.org/2000/svg"><g fill="none" fill-rule="evenodd"><circle fill="#1DA1F2" cx="20.385" cy="20" r="20"/><path d="M25.31 17.078v.35c0 3.341-2.552 7.208-7.212 7.208-1.405 0-2.724-.44-3.867-1.14h.614c1.144 0 2.288-.44 3.167-1.058-1.144 0-2.023-.79-2.373-1.758.175 0 .35.09.44.09.26 0 .439 0 .7-.09-1.14-.261-2.02-1.23-2.02-2.459.35.175.701.261 1.14.35-.7-.614-1.14-1.318-1.14-2.197 0-.44.086-.88.35-1.23 1.23 1.494 3.078 2.548 5.186 2.638 0-.179-.086-.354-.086-.619a2.552 2.552 0 0 1 2.549-2.548c.704 0 1.408.265 1.847.79.615-.086 1.144-.35 1.583-.614-.178.614-.618 1.054-1.143 1.407.525-.089.965-.175 1.493-.44a5.97 5.97 0 0 1-1.229 1.32z" fill="#FFF"/></g></svg>